PathFileType	3	(X/Y/Z)	D:\Vicon Database\Healthy Subjects\S0040\Jan. 30, 2020\Force Plate Walk 6.trc
DataRate	CameraRate	NumFrames	NumMarkers	Units	OrigDataRate	OrigDataStartFrame	OrigNumFrames
100.0	100.0	8	53	mm	100.0	266	350	
Frame#	Time	sternum_cluster1			sternum_cluster2			sternum_cluster3			left_asis			right_asis			left_psis			right_psis			sacrum_cluster1			sacrum_cluster2			sacrum_cluster3			left_lat_femoral_epicondyle			left_anterior_thigh15			left_anterior_thigh25			left_anterior_thigh50			left_lateral_thigh25			left_lateral_thigh50			left_thigh_cluster1			left_thigh_cluster2			left_thigh_cluster3			left_fibular_head			left_tibial_tuberosity			left_anterior_shank30			left_lateral_malleolus			left_shank_cluster1			left_shank_cluster2			left_shank_cluster3			left_heel			left_metatarsal2			left_foot_cluster1			left_foot_cluster2			left_foot_cluster3			right_lat_femoral_epicondyle			right_anterior_thigh15			right_anterior_thigh25			right_anterior_thigh50			right_lateral_thigh25			right_lateral_thigh50			right_thigh_cluster1			right_thigh_cluster2			right_thigh_cluster3			right_fibular_head			right_tibial_tuberosity			right_lateral_distal_shank			right_anterior_shank30			right_lateral_malleolus			right_shank_cluster1			right_shank_cluster2			right_shank_cluster3			right_heel			right_metatarsal2			right_foot_cluster1			right_foot_cluster2			right_foot_cluster3			
		X1	Y1	Z1	X2	Y2	Z2	X3	Y3	Z3	X4	Y4	Z4	X5	Y5	Z5	X6	Y6	Z6	X7	Y7	Z7	X8	Y8	Z8	X9	Y9	Z9	X10	Y10	Z10	X11	Y11	Z11	X12	Y12	Z12	X13	Y13	Z13	X14	Y14	Z14	X15	Y15	Z15	X16	Y16	Z16	X17	Y17	Z17	X18	Y18	Z18	X19	Y19	Z19	X20	Y20	Z20	X21	Y21	Z21	X22	Y22	Z22	X23	Y23	Z23	X24	Y24	Z24	X25	Y25	Z25	X26	Y26	Z26	X27	Y27	Z27	X28	Y28	Z28	X29	Y29	Z29	X30	Y30	Z30	X31	Y31	Z31	X32	Y32	Z32	X33	Y33	Z33	X34	Y34	Z34	X35	Y35	Z35	X36	Y36	Z36	X37	Y37	Z37	X38	Y38	Z38	X39	Y39	Z39	X40	Y40	Z40	X41	Y41	Z41	X42	Y42	Z42	X43	Y43	Z43	X44	Y44	Z44	X45	Y45	Z45	X46	Y46	Z46	X47	Y47	Z47	X48	Y48	Z48	X49	Y49	Z49	X50	Y50	Z50	X51	Y51	Z51	X52	Y52	Z52	X53	Y53	Z53	
266	2.65	3677.1785	1450.9625	-138.45267	3667.8086	1421.7698	-130.25949	3667.0754	1424.7819	-168.18443	3727.6382	1071.0409	-26.916155	3711.1189	1081.8879	-273.62515																3659.614	562.47076	0.19267929	3579.6028	656.85986	-39.953201	3597.3989	746.01605	-30.067064	3652.8672	873.90814	-22.594173	3706.75	701.45825	18.12435	3751.8628	844.13745	38.890236	3738.5325	799.74231	46.784306	3732.9695	769.97253	43.447514	3700.7004	789.05078	49.474995	3669.4126	493.8475	10.121222	3614.8853	462.64972	-40.132732	3777.1765	262.07971	-55.556885	3883.4861	192.29411	-29.572203	3647.3193	411.36502	-69.134369	3659.5852	386.55911	-60.220394	3668.6421	392.86487	-97.389229	3961.8545	199.30452	-75.909134	3774.3735	88.80851	-52.808094	3800.2593	160.82574	-49.13435	3790.5154	133.31345	-38.36808	3779.5071	136.09027	-75.18055	3796.2024	536.01843	-279.36389	3710.7024	621.17639	-221.63139	3690.9492	699.08508	-224.0361	3680.6553	828.61389	-238.00827	3785.334	695.88007	-307.96735	3775.8911	842.66791	-337.8645	3788.4309	788.70068	-343.43646	3777.0759	763.73444	-337.99689	3816.416	764.46332	-336.52988	3812.4832	468.68518	-282.07425	3760.7454	456.92654	-234.17238	3854.009	202.02361	-260.44806	3809.6431	212.63776	-212.88664	3869.2712	100.77381	-242.00633	3781.5493	394.34805	-177.68114	3790.5164	367.50061	-170.35059	3766.7695	362.03653	-197.1893	3943.6431	66.068138	-207.41266	3724.7886	73.805016	-202.52359	3783.0403	118.70985	-200.4294	3758.8726	105.908	-191.03511	3758.3149	110.16457	-228.8282
267	2.66	3666.7385	1450.743	-138.70488	3657.4055	1421.707	-130.13745	3656.5588	1424.6571	-168.45439	3717.9973	1071.355	-27.317919	3700.5381	1081.4133	-274.80682																3642.7571	565.24884	-0.14603275	3564.5605	661.60217	-40.252655	3584.0083	750.46942	-30.364311	3641.7334	876.93988	-23.17683	3691.9399	704.22968	19.252747	3739.7349	845.99445	39.868912	3725.6172	801.72961	47.364922	3719.2842	772.42651	44.60088	3687.0796	792.26172	50.190273	3650.9153	496.21088	9.6046791	3595.2473	466.41754	-40.180721	3746.8777	258.77792	-55.650139	3849.9202	183.98825	-29.939722	3624.2173	413.78943	-68.803902	3635.2334	388.41754	-59.495323	3644.2493	394.66415	-97.15831	3928.7754	186.64876	-76.571938	3734.8599	86.635818	-52.149014	3765.0801	156.93063	-49.388977	3753.6797	130.42386	-38.496937	3742.7708	133.68571	-75.205788	3793.6355	536.10474	-279.36676	3706.2554	619.71747	-221.17609	3685.6416	697.42822	-223.53917	3673.2122	826.7923	-237.49539	3779.8486	695.83069	-307.97659	3767.8418	842.18799	-337.79333	3781.2297	788.70007	-343.66052	3769.5784	763.12238	-338.41669	3809.7017	765.07019	-336.72406	3810.6013	468.8475	-281.6918	3759.3628	456.40594	-234.12917	3853.3682	202.30208	-260.4187	3808.9355	212.75209	-212.79868	3869.3716	101.01906	-242.24126	3780.2363	394.51257	-177.56474	3789.1494	367.60699	-170.36932	3764.2554	362.41852	-196.91205	3943.6082	66.463692	-207.30011	3724.7969	73.505615	-202.33456	3782.7048	118.78255	-200.41188	3758.6863	105.80408	-191.03773	3758.1707	110.06283	-228.81575
268	2.67	3656.2144	1450.4983	-138.56036	3646.8811	1421.3209	-130.11092	3645.8367	1424.7212	-168.08507	3708.1208	1071.8215	-27.579617	3690.8542	1080.2487	-274.10165																3626.4961	567.81012	-0.17414097	3549.9241	666.1369	-40.568932	3570.8242	754.41278	-30.827879	3630.6135	879.57239	-23.564064	3676.9709	706.97766	20.27586	3727.4517	847.58661	40.752346	3711.9651	803.68134	48.994282	3705.3979	774.01355	45.647514	3673.5789	795.14917	51.179634	3632.9504	498.13022	9.2159939	3575.8181	470.23038	-40.053596	3716.5874	255.37109	-55.300701	3815.5713	175.50021	-30.182198	3601.4143	416.21631	-68.498642	3611.356	390.95575	-59.490562	3620.3423	395.70605	-96.749016	3894.3992	173.42813	-77.04435	3695.1396	84.199806	-51.777332	3729.1543	153.06897	-49.27504	3716.4656	127.46912	-38.268909	3705.4631	131.18423	-74.743607	3791.1201	536.19489	-279.54398	3702.6785	618.50635	-221.00612	3680.1306	696.06421	-222.89458	3665.6929	825.09357	-237.29488	3774.0728	695.30652	-307.65195	3759.78	841.75995	-337.845	3774.3135	788.33588	-343.41708	3763.4736	762.53271	-337.36932	3802.6699	765.19122	-336.83707	3808.7139	468.83081	-281.3522	3756.752	456.36151	-233.88489	3852.7751	202.56741	-260.19675	3808.177	212.69949	-212.88585	3868.3687	101.19668	-241.19113	3778.6086	394.72278	-177.55135	3787.8215	368.08652	-170.04355	3762.4648	362.56512	-197.06198	3943.5168	66.67482	-207.19933	3724.5293	73.357834	-202.44556	3782.6055	118.635	-200.34906	3758.3364	105.58353	-191.12936	3757.9468	109.98773	-228.70451
269	2.68	3645.554	1449.823	-138.52818	3636.0916	1420.7599	-130.15891	3635.1902	1424.082	-168.31773	3698.0132	1072.037	-27.752918	3680.8613	1079.4839	-274.72525																3610.6719	569.90845	0.15729152	3535.832	669.76703	-40.871681	3557.853	757.82367	-31.245941	3619.3657	881.89313	-24.07777	3662.3525	709.49207	21.197956	3715.0254	849.39679	41.864773	3698.7964	805.2406	49.491158	3691.8521	776.54059	47.480309	3660.051	797.03888	51.785088	3615.2581	499.60349	8.8122625	3557.1487	473.81335	-40.164131	3685.9614	252.12082	-54.904671	3780.5173	167.09204	-30.032751	3579.3069	418.72214	-67.824974	3587.7371	392.73993	-58.540493	3596.8601	397.31952	-96.442612	3858.7205	159.75278	-77.221565	3654.7307	83.222412	-51.502281	3692.7961	149.59323	-48.948719	3678.2673	124.86207	-37.419601	3668.0002	128.79036	-74.428596	3788.3225	536.01202	-279.48856	3699.8118	616.86584	-220.9191	3674.377	694.46472	-222.42284	3658.2515	823.00946	-236.91374	3768.4871	694.90277	-308.10336	3751.8567	841.10028	-337.47516	3767.2979	787.46393	-343.60101	3755.7886	762.04669	-338.12909	3795.5889	765.07532	-337.02585	3807.1174	469.06436	-281.58554	3754.8745	456.06784	-233.73473	3852.0796	202.92177	-259.97409	3807.3462	212.6805	-212.7946	3868.0571	101.47547	-241.19724	3776.7102	394.48935	-177.48155	3785.9307	367.77243	-169.86754	3760.9158	362.36548	-197.16292	3943.2622	66.613251	-207.09015	3724.2104	73.003799	-202.51317	3782.2727	118.45954	-200.09491	3758.2178	105.57378	-190.83095	3757.5625	109.78165	-228.66571
270	2.69	3634.866	1449.3477	-138.58829	3625.6499	1420.1871	-129.92722	3623.9883	1423.9685	-167.77751	3688.0164	1071.6477	-28.01001	3670.4729	1078.4056	-274.59546																3595.3806	571.72003	0.68252003	3522.1294	673.0816	-41.19413	3545.0728	760.93109	-31.794228	3608.0889	883.85663	-24.400681	3647.9468	711.32123	22.026293	3702.8035	850.72162	42.849789	3685.8269	806.64392	50.595829	3678.1313	777.72681	48.247498	3646.7488	799.5957	52.570244	3597.8955	500.35709	8.6999254	3539.071	477.55795	-40.290947	3655.0964	248.69852	-54.446609	3744.7004	157.93526	-29.904949	3558.0352	421.43787	-67.897827	3563.5869	395.42395	-58.163334	3574.061	398.47781	-96.11911	3822.0833	146.40244	-77.28653	3614.5698	82.005386	-50.67881	3656.2319	146.2915	-48.333214	3640.2649	122.53828	-36.60664	3630.1152	127.0632	-73.596359	3785.4724	535.89417	-279.26938	3696.0715	615.40509	-220.71257	3669.0959	692.63373	-222.17758	3650.4319	821.11511	-236.64684	3762.8376	694.52252	-308.01483	3743.4868	839.88983	-337.44235	3760.0305	787.0127	-343.43417	3749.5208	761.34113	-337.36429	3788.4993	764.87921	-337.17081	3805.0742	468.97824	-281.1239	3752.9253	455.76675	-233.73517	3851.2629	202.99445	-259.64417	3806.4805	212.67543	-212.61008	3868.5676	101.36428	-241.50943	3774.4971	393.72195	-177.5191	3784.1792	367.27716	-169.16896	3759.3545	362.13486	-197.05359	3943.1516	66.681725	-207.0121	3724.1013	72.79483	-202.41245	3782.1506	118.30233	-199.80916	3757.6455	105.06935	-190.86302	3757.3379	109.61006	-228.16408
271	2.7	3623.7813	1448.7821	-138.17386	3614.886	1419.4736	-129.88731	3613.271	1423.1281	-167.47078	3677.8286	1071.0399	-28.23312	3660.4756	1076.9022	-275.00336																3580.6472	573.30768	1.0875552	3508.9158	675.73932	-41.600887	3532.5669	763.30847	-32.393723	3596.8406	885.44678	-24.811995	3633.9912	712.77753	22.870239	3691.051	851.38934	43.343327	3672.0242	808.53296	52.169212	3664.9785	778.99402	49.214508	3633.5959	800.86127	53.532871	3581.1897	501.13171	8.5494509	3521.6152	480.94391	-40.330402	3623.2024	246.20222	-54.100948	3708.4458	149.98642	-29.317419	3536.9973	424.09924	-67.513496	3540.1162	397.7406	-57.67664	3551.8071	400.17624	-95.94043	3784.6809	133.71964	-76.973831	3574.4414	81.472633	-49.678631	3619.3645	143.33989	-47.620815	3601.6658	121.40787	-35.647858	3591.8635	126.0155	-72.497482	3782.5957	535.81683	-278.98355	3692.2949	614.11792	-220.52211	3664.0593	690.90924	-222.00351	3642.521	819.19073	-236.24554	3756.8918	693.79169	-307.74423	3735.4131	839.10571	-337.16791	3749.7542	787.49951	-343.68631	3741.7202	760.72845	-338.00323	3780.7183	763.38586	-336.28949	3802.9124	469.01605	-280.75613	3750.8164	455.53162	-233.64264	3850.9402	203.49469	-259.02502	3805.5918	212.69386	-212.42218	3868.3379	101.63322	-241.28247	3773.1782	393.60822	-177.26007	3782.4009	367.25562	-169.11858	3757.7417	361.90857	-196.756	3943.2246	67.204414	-206.86888	3723.8833	72.585381	-202.34721	3781.917	118.64271	-199.54977	3757.3801	104.86122	-190.72099	3757.2817	109.47918	-228.43242
272	2.71	3612.928	1447.7313	-138.53375	3604.0583	1418.7799	-129.69339	3602.3909	1421.9886	-167.43803	3667.4795	1070.0986	-28.358152	3650.0945	1075.5238	-275.13916																3566.4355	574.56335	1.2847912	3496.1328	677.74762	-41.949081	3520.3159	765.13812	-32.926525	3585.5376	886.45288	-25.137745	3620.385	714.09424	23.465113	3678.3938	852.1073	44.344208	3659.2158	809.22406	52.953228	3651.675	780.1886	50.35107	3620.9578	801.76379	53.56274	3564.5476	501.42307	8.4389372	3504.7229	483.948	-40.523602	3592.6052	243.83461	-53.596096	3671.5618	142.73744	-28.754549	3516.7771	426.06119	-67.424217	3518.6274	399.7648	-57.870747	3530.1094	401.67331	-95.757385	3746.8101	122.12005	-76.311401	3533.3296	82.423103	-48.817032	3582.1985	141.10165	-46.931709	3563.9124	119.40554	-35.18166	3553.7798	125.58382	-71.716896	3779.6465	535.6601	-278.98135	3687.9714	612.42023	-219.76607	3656.7148	689.29315	-221.09013	3634.4185	817.03467	-235.91866	3751.0171	693.1983	-307.43661	3727.1177	838.25085	-337.25323	3742.3152	786.67908	-343.31021	3734.9312	759.58679	-337.36716	3774.229	764.3515	-337.14627	3800.5015	468.9324	-280.11386	3748.8079	455.36993	-233.48131	3850.1133	203.75626	-258.60468	3804.6345	212.77879	-212.11729	3868.054	101.90961	-240.83931	3771.5288	394.02185	-176.8456	3780.4031	367.27301	-169.34322	3756.2056	361.50681	-196.56007	3943.0471	67.54435	-206.71019	3723.5544	72.432137	-202.30945	3781.5562	118.42596	-199.39313	3757.0781	104.78498	-190.63347	3756.9978	109.2834	-228.59079
273	2.72	3602.0347	1446.808	-138.089	3593.1125	1417.8138	-129.35057	3591.302	1421.0098	-167.42993	3656.9543	1069.6704	-28.196342	3639.501	1074.2462	-275.12402																3552.8154	575.48334	1.206941	3483.7126	679.19116	-42.377163	3508.375	766.37341	-33.395824	3574.3301	887.1405	-25.261356	3607.4951	714.448	24.11224	3666.4563	852.59271	44.763161	3646.9595	809.48431	53.633049	3639.0337	780.45605	50.99699	3608.4238	803.16681	54.591042	3548.4976	501.18555	8.5907497	3488.3567	486.38251	-40.474735	3561.8684	241.6033	-52.886467	3634.3672	136.16603	-27.821877	3497.1853	428.31729	-67.676437	3498.0557	401.78491	-57.990891	3509.0181	403.11749	-95.744339	3708.3215	111.14976	-75.299721	3492.2905	84.193466	-48.205757	3544.9766	139.64169	-46.146023	3525.4375	119.06739	-34.331902	3515.8057	125.64806	-70.871826	3776.9355	535.64215	-278.3222	3684.1292	610.75897	-219.52847	3650.9397	687.0166	-220.25902	3626.0303	815.09222	-235.53203	3744.9392	692.29291	-306.87756	3718.6584	836.63678	-336.7988	3734.6638	785.71735	-342.98538	3727.6575	758.81476	-337.25192	3767.0964	764.11694	-337.14206	3798.3347	469.13174	-279.83066	3746.7109	455.28754	-233.07703	3849.2664	204.1731	-258.35574	3803.7856	212.75673	-211.71857	3867.5867	101.75793	-240.53996	3769.2998	393.99008	-176.63756	3778.4895	367.32748	-169.20128	3754.3926	361.10217	-196.44052	3942.9133	67.901741	-206.60394	3723.3809	72.194572	-202.24724	3781.3293	118.2299	-199.05956	3756.79	104.74269	-190.3522	3756.7031	109.37541	-228.13225
